# xmcd CD database file
#
# Track frame offsets:
#	150
#	17824
#	35066
#	57323
#	72290
#	88052
#	101316
#	118934
#
# Disc length: 1804 seconds
#
# Revision: 0
# Processed by: cddbd v1.5.2PL0 Copyright (c) Steve Scherf et al.
# Submitted via: CDex 1.51
#
DISCID=6b070a08
DTITLE=Travellin' Brothers - From the Road
DYEAR=2006
DGENRE=Blues
TTITLE0=Opposing Poles
TTITLE1=The Plan
TTITLE2=Little Wonder
TTITLE3=That's Love
TTITLE4=Shake It Sister
TTITLE5=Empty Arms
TTITLE6=Mary Anne
TTITLE7=T Bone Shuffle
EXTD=YEAR: 2006
EXTT0=
EXTT1=
EXTT2=
EXTT3=
EXTT4=
EXTT5=
EXTT6=
EXTT7=
PLAYORDER=
